<svg width="48" height="48" viewBox="0 0 48 48" fill="none" xmlns="http://www.w3.org/2000/svg">
<path d="M10.5 22.5H40.5C40.8978 22.5 41.2794 22.658 41.5607 22.9393C41.842 23.2206 42 23.6022 42 24C42 24.3978 41.842 24.7794 41.5607 25.0607C41.2794 25.342 40.8978 25.5 40.5 25.5H10.5C10.1022 25.5 9.72064 25.342 9.43934 25.0607C9.15804 24.7794 9 24.3978 9 24C9 23.6022 9.15804 23.2206 9.43934 22.9393C9.72064 22.658 10.1022 22.5 10.5 22.5Z" fill="black"/>
<path d="M11.121 24L23.562 36.438C23.8437 36.7197 24.0019 37.1017 24.0019 37.5C24.0019 37.8983 23.8437 38.2803 23.562 38.562C23.2803 38.8437 22.8983 39.0019 22.5 39.0019C22.1017 39.0019 21.7197 38.8437 21.438 38.562L7.938 25.062C7.79831 24.9227 7.68748 24.7571 7.61186 24.5749C7.53624 24.3927 7.49731 24.1973 7.49731 24C7.49731 23.8027 7.53624 23.6073 7.61186 23.4251C7.68748 23.2429 7.79831 23.0773 7.938 22.938L21.438 9.438C21.7197 9.15634 22.1017 8.99811 22.5 8.99811C22.8983 8.99811 23.2803 9.15634 23.562 9.438C23.8437 9.71966 24.0019 10.1017 24.0019 10.5C24.0019 10.8983 23.8437 11.2803 23.562 11.562L11.121 24Z" fill="black"/>
</svg>
